# Blender 4.0.2
# www.blender.org
mtllib Cube.mtl
o Cube
v 0.342899 0.342899 -0.342899
v 0.342899 -0.342899 -0.342899
v 0.342899 0.342899 0.342899
v 0.342899 -0.342899 0.342899
v -0.342899 0.342899 -0.342899
v -0.342899 -0.342899 -0.342899
v -0.342899 0.342899 0.342899
v -0.342899 -0.342899 0.342899
vn -0.0000 1.0000 -0.0000
vn -0.0000 -0.0000 1.0000
vn -1.0000 -0.0000 -0.0000
vn -0.0000 -1.0000 -0.0000
vn 1.0000 -0.0000 -0.0000
vn -0.0000 -0.0000 -1.0000
vt -0.004092 -0.002542
vt 0.994709 -0.002542
vt 0.994709 0.996259
vt -0.004092 0.996259
vt -0.000507 0.999401
vt -0.000507 0.000599
vt 0.998294 0.000599
vt 0.998294 0.999401
vt 0.996341 -0.002542
vt 0.996341 0.996259
vt -0.002460 0.996259
vt -0.002460 -0.002542
vt 0.002149 -0.005643
vt 1.000951 -0.005643
vt 1.000951 0.993159
vt 0.002150 0.993159
vt 0.000599 0.999401
vt 0.000599 0.000599
vt 0.999400 0.000599
vt 0.999401 0.999401
vt -0.000052 0.999401
vt -0.000052 0.000599
vt 0.998750 0.000599
vt 0.998750 0.999401
s 0
usemtl Material
f 1/1/1 5/2/1 7/3/1 3/4/1
f 4/5/2 3/6/2 7/7/2 8/8/2
f 8/9/3 7/10/3 5/11/3 6/12/3
f 6/13/4 2/14/4 4/15/4 8/16/4
f 2/17/5 1/18/5 3/19/5 4/20/5
f 6/21/6 5/22/6 1/23/6 2/24/6
